<mxfile host="app.diagrams.net" modified="2021-05-11T19:34:52.410Z" agent="5.0 (Windows NT 10.0; Win64; x64) AppleWebKit/537.36 (KHTML, like Gecko) Chrome/90.0.4430.93 Safari/537.36" etag="MNrkvZoIq1LxoDF4Bcv0" version="14.6.11" type="github">
  <diagram name="Page-1" id="2a216829-ef6e-dabb-86c1-c78162f3ba2b">
    <mxGraphModel dx="1483" dy="783" grid="1" gridSize="10" guides="1" tooltips="1" connect="1" arrows="1" fold="1" page="1" pageScale="1" pageWidth="850" pageHeight="1100" background="#ffffff" math="0" shadow="0">
      <root>
        <mxCell id="0" />
        <mxCell id="1" parent="0" />
        <mxCell id="7a84cebc1def654-1" value="позвонить в службу спасения" style="shape=mxgraph.bpmn.shape;html=1;verticalLabelPosition=bottom;labelBackgroundColor=#ffffff;verticalAlign=top;perimeter=ellipsePerimeter;outline=standard;symbol=general;" parent="1" vertex="1">
          <mxGeometry x="260" y="265" width="50" height="50" as="geometry" />
        </mxCell>
        <mxCell id="7a84cebc1def654-36" style="edgeStyle=orthogonalEdgeStyle;rounded=0;html=1;jettySize=auto;orthogonalLoop=1;" parent="1" source="7a84cebc1def654-1" edge="1">
          <mxGeometry relative="1" as="geometry">
            <mxPoint x="360" y="290" as="targetPoint" />
          </mxGeometry>
        </mxCell>
        <mxCell id="_0RBYRQyoNk86ozEI0FX-4" style="edgeStyle=orthogonalEdgeStyle;rounded=0;orthogonalLoop=1;jettySize=auto;html=1;" edge="1" parent="1" source="_0RBYRQyoNk86ozEI0FX-1">
          <mxGeometry relative="1" as="geometry">
            <mxPoint x="600" y="290" as="targetPoint" />
          </mxGeometry>
        </mxCell>
        <mxCell id="_0RBYRQyoNk86ozEI0FX-1" value="сообщить точный адрес пострадавшего" style="rounded=1;whiteSpace=wrap;html=1;" vertex="1" parent="1">
          <mxGeometry x="365" y="260" width="155" height="60" as="geometry" />
        </mxCell>
        <mxCell id="_0RBYRQyoNk86ozEI0FX-8" value="" style="edgeStyle=orthogonalEdgeStyle;rounded=0;orthogonalLoop=1;jettySize=auto;html=1;" edge="1" parent="1" source="_0RBYRQyoNk86ozEI0FX-6" target="_0RBYRQyoNk86ozEI0FX-7">
          <mxGeometry relative="1" as="geometry" />
        </mxCell>
        <mxCell id="_0RBYRQyoNk86ozEI0FX-6" value="ответить на вопросы диспетчера" style="rounded=1;whiteSpace=wrap;html=1;" vertex="1" parent="1">
          <mxGeometry x="600" y="260" width="120" height="60" as="geometry" />
        </mxCell>
        <mxCell id="_0RBYRQyoNk86ozEI0FX-9" value="пострадавший находится в помещении" style="edgeStyle=orthogonalEdgeStyle;rounded=0;orthogonalLoop=1;jettySize=auto;html=1;" edge="1" parent="1" source="_0RBYRQyoNk86ozEI0FX-7">
          <mxGeometry x="0.2194" relative="1" as="geometry">
            <mxPoint x="1040" y="200" as="targetPoint" />
            <Array as="points">
              <mxPoint x="795" y="200" />
            </Array>
            <mxPoint as="offset" />
          </mxGeometry>
        </mxCell>
        <mxCell id="_0RBYRQyoNk86ozEI0FX-10" value="пострадавший находится на улице\открытой местности&amp;nbsp;" style="edgeStyle=orthogonalEdgeStyle;rounded=0;orthogonalLoop=1;jettySize=auto;html=1;entryX=0;entryY=0.5;entryDx=0;entryDy=0;" edge="1" parent="1" source="_0RBYRQyoNk86ozEI0FX-7" target="_0RBYRQyoNk86ozEI0FX-12">
          <mxGeometry x="0.0324" relative="1" as="geometry">
            <mxPoint x="1250" y="400" as="targetPoint" />
            <Array as="points">
              <mxPoint x="795" y="430" />
            </Array>
            <mxPoint as="offset" />
          </mxGeometry>
        </mxCell>
        <mxCell id="_0RBYRQyoNk86ozEI0FX-7" value="" style="points=[[0.25,0.25,0],[0.5,0,0],[0.75,0.25,0],[1,0.5,0],[0.75,0.75,0],[0.5,1,0],[0.25,0.75,0],[0,0.5,0]];shape=mxgraph.bpmn.gateway2;html=1;verticalLabelPosition=bottom;labelBackgroundColor=#ffffff;verticalAlign=top;align=center;perimeter=rhombusPerimeter;outlineConnect=0;outline=none;symbol=none;gwType=exclusive;" vertex="1" parent="1">
          <mxGeometry x="770" y="262.5" width="50" height="55" as="geometry" />
        </mxCell>
        <mxCell id="_0RBYRQyoNk86ozEI0FX-27" style="edgeStyle=orthogonalEdgeStyle;rounded=0;orthogonalLoop=1;jettySize=auto;html=1;" edge="1" parent="1" source="_0RBYRQyoNk86ozEI0FX-12">
          <mxGeometry relative="1" as="geometry">
            <mxPoint x="1430" y="520" as="targetPoint" />
          </mxGeometry>
        </mxCell>
        <mxCell id="_0RBYRQyoNk86ozEI0FX-12" value="создать условия для работы службы&amp;nbsp;" style="rounded=1;whiteSpace=wrap;html=1;" vertex="1" parent="1">
          <mxGeometry x="1370" y="400" width="120" height="60" as="geometry" />
        </mxCell>
        <mxCell id="_0RBYRQyoNk86ozEI0FX-21" value="если&amp;nbsp; такой человек найден" style="edgeStyle=orthogonalEdgeStyle;rounded=0;orthogonalLoop=1;jettySize=auto;html=1;" edge="1" parent="1" source="_0RBYRQyoNk86ozEI0FX-13">
          <mxGeometry x="0.1628" relative="1" as="geometry">
            <mxPoint x="1620" y="120" as="targetPoint" />
            <Array as="points">
              <mxPoint x="1430" y="90" />
              <mxPoint x="1620" y="90" />
            </Array>
            <mxPoint as="offset" />
          </mxGeometry>
        </mxCell>
        <mxCell id="_0RBYRQyoNk86ozEI0FX-22" value="если такой человек не найден" style="edgeStyle=orthogonalEdgeStyle;rounded=0;orthogonalLoop=1;jettySize=auto;html=1;entryX=0.5;entryY=0;entryDx=0;entryDy=0;" edge="1" parent="1" target="_0RBYRQyoNk86ozEI0FX-12">
          <mxGeometry x="-0.3174" relative="1" as="geometry">
            <mxPoint x="1500" y="332.5" as="targetPoint" />
            <mxPoint x="1430" y="233" as="sourcePoint" />
            <Array as="points">
              <mxPoint x="1430" y="240" />
              <mxPoint x="1430" y="240" />
            </Array>
            <mxPoint as="offset" />
          </mxGeometry>
        </mxCell>
        <mxCell id="_0RBYRQyoNk86ozEI0FX-13" value="" style="points=[[0.25,0.25,0],[0.5,0,0],[0.75,0.25,0],[1,0.5,0],[0.75,0.75,0],[0.5,1,0],[0.25,0.75,0],[0,0.5,0]];shape=mxgraph.bpmn.gateway2;html=1;verticalLabelPosition=bottom;labelBackgroundColor=#ffffff;verticalAlign=top;align=center;perimeter=rhombusPerimeter;outlineConnect=0;outline=none;symbol=none;gwType=exclusive;" vertex="1" parent="1">
          <mxGeometry x="1405" y="177.5" width="50" height="55" as="geometry" />
        </mxCell>
        <mxCell id="_0RBYRQyoNk86ozEI0FX-20" style="edgeStyle=orthogonalEdgeStyle;rounded=0;orthogonalLoop=1;jettySize=auto;html=1;exitX=1;exitY=0.5;exitDx=0;exitDy=0;exitPerimeter=0;entryX=0;entryY=0.5;entryDx=0;entryDy=0;entryPerimeter=0;" edge="1" parent="1" source="_0RBYRQyoNk86ozEI0FX-18" target="_0RBYRQyoNk86ozEI0FX-13">
          <mxGeometry relative="1" as="geometry" />
        </mxCell>
        <mxCell id="_0RBYRQyoNk86ozEI0FX-18" value="найти человека, способного следить за пострадавшим" style="points=[[0.25,0,0],[0.5,0,0],[0.75,0,0],[1,0.25,0],[1,0.5,0],[1,0.75,0],[0.75,1,0],[0.5,1,0],[0.25,1,0],[0,0.75,0],[0,0.5,0],[0,0.25,0]];shape=mxgraph.bpmn.task;rectStyle=rounded;size=10;taskMarker=abstract;" vertex="1" parent="1">
          <mxGeometry x="1040" y="180" width="320" height="50" as="geometry" />
        </mxCell>
        <mxCell id="_0RBYRQyoNk86ozEI0FX-24" style="edgeStyle=orthogonalEdgeStyle;rounded=0;orthogonalLoop=1;jettySize=auto;html=1;entryX=0.5;entryY=0;entryDx=0;entryDy=0;" edge="1" parent="1" source="_0RBYRQyoNk86ozEI0FX-23" target="_0RBYRQyoNk86ozEI0FX-25">
          <mxGeometry relative="1" as="geometry">
            <mxPoint x="1615" y="230" as="targetPoint" />
          </mxGeometry>
        </mxCell>
        <mxCell id="_0RBYRQyoNk86ozEI0FX-23" value="встретить службу спасения" style="rounded=1;whiteSpace=wrap;html=1;" vertex="1" parent="1">
          <mxGeometry x="1560" y="120" width="110" height="70" as="geometry" />
        </mxCell>
        <mxCell id="_0RBYRQyoNk86ozEI0FX-26" style="edgeStyle=orthogonalEdgeStyle;rounded=0;orthogonalLoop=1;jettySize=auto;html=1;entryX=1;entryY=0.5;entryDx=0;entryDy=0;" edge="1" parent="1" source="_0RBYRQyoNk86ozEI0FX-25" target="_0RBYRQyoNk86ozEI0FX-12">
          <mxGeometry relative="1" as="geometry">
            <mxPoint x="1615" y="430" as="targetPoint" />
          </mxGeometry>
        </mxCell>
        <mxCell id="_0RBYRQyoNk86ozEI0FX-25" value="сопроводить службу спасения до пострадавшего" style="rounded=1;whiteSpace=wrap;html=1;" vertex="1" parent="1">
          <mxGeometry x="1555" y="240" width="120" height="60" as="geometry" />
        </mxCell>
        <mxCell id="_0RBYRQyoNk86ozEI0FX-31" value="служба спасения подготовлена к оказанию помощи пострадавшему" style="points=[[0.145,0.145,0],[0.5,0,0],[0.855,0.145,0],[1,0.5,0],[0.855,0.855,0],[0.5,1,0],[0.145,0.855,0],[0,0.5,0]];shape=mxgraph.bpmn.event;html=1;verticalLabelPosition=bottom;labelBackgroundColor=#ffffff;verticalAlign=top;align=center;perimeter=ellipsePerimeter;outlineConnect=0;aspect=fixed;outline=end;symbol=terminate2;" vertex="1" parent="1">
          <mxGeometry x="1405" y="520" width="50" height="50" as="geometry" />
        </mxCell>
      </root>
    </mxGraphModel>
  </diagram>
</mxfile>
